<?xml version="1.0" encoding="UTF-8"?><svg id="a" xmlns="http://www.w3.org/2000/svg" viewBox="0 0 832.468 191.775"><path d="M300.877,127.65c-7.8,0-15-1.401-21.6-4.2s-12.375-6.675-17.325-11.625c-4.95-4.95-8.775-10.725-11.475-17.325-2.7-6.6-4.05-13.699-4.05-21.3s1.35-14.7,4.05-21.3c2.7-6.6,6.499-12.349,11.4-17.25s10.65-8.749,17.25-11.55c6.6-2.798,13.749-4.2,21.45-4.2,8.6,0,16.074,1.376,22.425,4.125,6.349,2.751,11.974,6.476,16.875,11.175l-13.95,13.95c-2.901-3.199-6.45-5.7-10.65-7.5-4.2-1.8-9.101-2.7-14.7-2.7-4.8,0-9.225.825-13.275,2.475-4.05,1.65-7.575,4.05-10.575,7.2s-5.302,6.9-6.9,11.25c-1.601,4.35-2.4,9.126-2.4,14.325,0,5.301.799,10.125,2.4,14.475,1.599,4.35,3.9,8.077,6.9,11.175,3,3.101,6.525,5.5,10.575,7.199,4.05,1.702,8.524,2.551,13.425,2.551,5.899,0,10.95-.924,15.15-2.775,4.2-1.85,7.8-4.373,10.8-7.575l13.95,13.95c-5.001,4.8-10.777,8.576-17.325,11.325-6.551,2.749-14.025,4.125-22.425,4.125Z" fill="#141413"/><path d="M381.727,127.65c-7.301,0-13.875-1.674-19.725-5.025-5.85-3.349-10.477-7.898-13.875-13.649-3.401-5.75-5.1-12.225-5.1-19.425,0-7.099,1.699-13.474,5.1-19.125,3.398-5.648,8.025-10.148,13.875-13.5,5.85-3.349,12.424-5.025,19.725-5.025,7.399,0,14.025,1.65,19.875,4.95,5.85,3.3,10.5,7.8,13.95,13.5,3.45,5.7,5.175,12.101,5.175,19.2s-1.702,13.551-5.1,19.35c-3.401,5.801-8.051,10.376-13.95,13.725-5.901,3.352-12.551,5.025-19.95,5.025ZM381.727,109.2c3.698,0,6.975-.849,9.825-2.55,2.85-1.699,5.049-3.999,6.6-6.9,1.549-2.899,2.325-6.248,2.325-10.049s-.825-7.148-2.475-10.05c-1.65-2.899-3.851-5.175-6.6-6.825-2.751-1.65-5.977-2.475-9.675-2.475-3.6,0-6.802.825-9.6,2.475-2.801,1.65-4.976,3.926-6.525,6.825-1.552,2.902-2.325,6.251-2.325,10.05s.773,7.15,2.325,10.049c1.549,2.901,3.724,5.201,6.525,6.9,2.798,1.701,6,2.55,9.6,2.55Z" fill="#141413"/><path d="M430.174,126V53.55h19.65v72.45h-19.65ZM478.774,126v-41.549c0-4.299-1.35-7.8-4.05-10.5-2.7-2.7-6.149-4.05-10.35-4.05-2.801,0-5.302.6-7.5,1.8-2.201,1.2-3.926,2.925-5.175,5.175-1.251,2.25-1.875,4.776-1.875,7.575l-7.65-4.05c0-5.599,1.223-10.523,3.675-14.775,2.449-4.249,5.85-7.575,10.2-9.975,4.35-2.4,9.274-3.6,14.775-3.6,5.399,0,10.174,1.327,14.324,3.975,4.148,2.651,7.426,6.101,9.825,10.35,2.4,4.251,3.601,8.775,3.601,13.575v46.049h-19.801Z" fill="#141413"/><path d="M546.123,127.65c-7.6,0-14.375-1.65-20.324-4.95-5.951-3.3-10.626-7.8-14.024-13.5-3.401-5.7-5.101-12.199-5.101-19.5,0-7.2,1.674-13.65,5.025-19.35,3.35-5.7,7.924-10.2,13.725-13.5,5.799-3.3,12.301-4.95,19.5-4.95,6.799,0,12.9,1.552,18.301,4.65,5.398,3.101,9.6,7.402,12.6,12.9,3,5.5,4.5,11.751,4.5,18.75,0,1.301-.053,2.625-.15,3.975-.102,1.35-.352,2.827-.75,4.425l-61.051.15v-14.7l51.9-.15-8.1,6.15c-.102-4.298-.852-7.898-2.25-10.8-1.402-2.899-3.352-5.1-5.85-6.6-2.502-1.5-5.602-2.25-9.301-2.25-3.9,0-7.301.851-10.199,2.55-2.902,1.701-5.127,4.125-6.676,7.275-1.551,3.15-2.324,6.876-2.324,11.175,0,4.402.824,8.227,2.475,11.475,1.65,3.251,4.023,5.726,7.125,7.425,3.098,1.702,6.699,2.551,10.801,2.551,3.697,0,7.049-.601,10.049-1.801,3-1.199,5.6-3.098,7.801-5.699l11.699,11.699c-3.701,4.2-8.051,7.351-13.049,9.45-5.002,2.101-10.451,3.15-16.352,3.15Z" fill="#141413"/><path d="M591.721,126V20.55h20.4v105.45h-20.4ZM606.721,126v-18.149h53.7v18.149h-53.7Z" fill="#141413"/><path d="M698.221,127.5c-6.6,0-12.524-1.649-17.774-4.95-5.25-3.3-9.375-7.8-12.375-13.5-3-5.699-4.5-12.098-4.5-19.199,0-7.2,1.5-13.65,4.5-19.35s7.125-10.2,12.375-13.5,11.224-4.95,17.925-4.95c5.1,0,9.698,1.05,13.8,3.15,4.1,2.1,7.399,5.001,9.9,8.7,2.498,3.701,3.849,7.95,4.05,12.75v26.25c-.201,4.701-1.525,8.925-3.975,12.675-2.452,3.75-5.752,6.675-9.9,8.775-4.15,2.1-8.826,3.149-14.025,3.149ZM701.971,109.35c5.499,0,9.949-1.85,13.351-5.551,3.398-3.698,5.1-8.348,5.1-13.949,0-3.799-.802-7.2-2.399-10.2-1.602-3-3.75-5.325-6.45-6.975-2.7-1.65-5.901-2.475-9.601-2.475-3.6,0-6.775.851-9.524,2.55-2.752,1.702-4.901,4.001-6.45,6.9-1.552,2.902-2.325,6.251-2.325,10.05,0,3.9.773,7.3,2.325,10.2,1.549,2.901,3.725,5.2,6.525,6.899,2.798,1.702,5.948,2.551,9.449,2.551ZM719.221,126v-19.5l3.301-17.7-3.301-17.55v-17.7h19.801v72.45h-19.801Z" fill="#141413"/><path d="M753.12,126V17.55h19.649v53.7l-3.3,17.55,3.15,17.7v19.5h-19.5ZM793.32,127.5c-5.201,0-9.9-1.075-14.101-3.225s-7.575-5.124-10.125-8.925c-2.55-3.8-3.926-8.101-4.125-12.9v-25.8c.199-4.699,1.575-8.899,4.125-12.6,2.55-3.698,5.948-6.623,10.2-8.775,4.249-2.149,8.925-3.225,14.025-3.225,6.698,0,12.724,1.65,18.074,4.95,5.349,3.3,9.525,7.8,12.525,13.5s4.5,12.15,4.5,19.35c0,7.102-1.525,13.5-4.575,19.199-3.052,5.7-7.226,10.2-12.524,13.5-5.302,3.301-11.302,4.95-18,4.95ZM790.019,109.35c3.601,0,6.75-.849,9.45-2.551,2.7-1.699,4.823-3.998,6.375-6.899,1.55-2.899,2.325-6.3,2.325-10.2,0-3.699-.775-7.024-2.325-9.975-1.552-2.949-3.7-5.273-6.45-6.975-2.751-1.699-5.925-2.55-9.524-2.55s-6.776.851-9.525,2.55c-2.751,1.702-4.875,4.001-6.375,6.9-1.5,2.902-2.25,6.3-2.25,10.2,0,3.801.75,7.15,2.25,10.05,1.5,2.901,3.649,5.2,6.45,6.899,2.799,1.702,6,2.551,9.6,2.551Z" fill="#141413"/><polygon points="134.548 91.827 52.077 91.827 66.804 117.335 119.821 117.335 134.548 91.827" fill="#d97757"/><path d="M40.296,71.421h106.033L186.337,2.126c.675-1.169.123-2.126-1.227-2.126H1.515C.165,0-.387.957.288,2.126l40.008,69.296Z" fill="#d97757"/><path d="M78.586,137.741l13.5,23.382c.675,1.169,1.779,1.169,2.454,0l13.5-23.382h-29.454Z" fill="#d97757"/></svg>